<?xml version="1.0" standalone="no"?>
<!DOCTYPE svg PUBLIC "-//W3C//DTD SVG 20010904//EN"
 "http://www.w3.org/TR/2001/REC-SVG-20010904/DTD/svg10.dtd">
<svg version="1.0" xmlns="http://www.w3.org/2000/svg"
 width="1079.000000pt" height="97.000000pt" viewBox="0 0 1079.000000 97.000000"
 preserveAspectRatio="xMidYMid meet">

<g transform="translate(0.000000,97.000000) scale(0.100000,-0.100000)"
fill="#000000" stroke="none">
<path d="M7820 945 c-83 -17 -144 -39 -181 -66 -37 -26 -69 -87 -72 -137 l-2
-37 136 -3 137 -3 6 25 c9 38 67 60 161 59 99 0 155 -20 155 -56 0 -14 -7 -30
-15 -37 -8 -6 -72 -21 -142 -31 -246 -38 -305 -60 -376 -138 -45 -50 -67 -122
-67 -218 l0 -73 450 0 450 0 0 95 0 95 -331 0 c-230 0 -328 3 -324 11 13 19
55 29 202 44 152 16 248 34 306 59 98 40 147 133 126 234 -20 96 -107 157
-261 182 -86 14 -279 11 -358 -5z"/>
<path d="M8875 950 c-134 -11 -224 -50 -296 -127 -60 -64 -83 -132 -83 -238 1
-235 166 -365 464 -365 168 0 300 43 356 117 80 106 106 258 65 391 -18 60
-29 77 -76 120 -64 58 -138 90 -229 98 -33 2 -74 6 -91 7 -16 2 -66 0 -110 -3z
m177 -212 c130 -39 144 -233 22 -294 -55 -27 -186 -27 -233 1 -65 38 -92 106
-77 189 8 42 55 92 99 105 46 13 143 13 189 -1z"/>
<path d="M9701 950 c-184 -39 -271 -111 -271 -227 0 -23 2 -23 135 -23 l134 0
16 29 c24 47 122 70 220 52 67 -13 101 -38 91 -69 -9 -27 -43 -38 -176 -57
-208 -29 -276 -54 -348 -125 -52 -52 -72 -114 -72 -222 l0 -78 450 0 450 0 0
95 0 95 -330 0 c-189 0 -330 4 -330 9 0 17 63 31 212 46 309 33 416 90 426
226 6 78 -11 121 -65 169 -72 63 -145 82 -338 86 -88 2 -180 -1 -204 -6z"/>
<path d="M0 584 l0 -355 373 3 c330 4 378 6 422 22 111 41 149 93 143 192 -3
53 -9 69 -33 94 -15 16 -48 37 -72 46 l-44 17 29 19 c39 24 63 76 63 136 1 61
-12 93 -51 125 -62 52 -102 57 -482 57 l-348 0 0 -356z m570 190 c43 -9 59
-44 36 -79 l-16 -25 -165 0 -165 0 0 55 0 55 139 0 c76 0 153 -3 171 -6z m73
-263 c25 -20 21 -67 -5 -85 -18 -13 -56 -16 -200 -16 l-178 0 0 61 0 61 183
-4 c137 -2 188 -6 200 -17z"/>
<path d="M4770 585 l0 -355 135 0 135 0 0 355 0 355 -135 0 -135 0 0 -355z"/>
<path d="M10580 922 c0 -50 -60 -89 -150 -99 l-60 -6 0 -68 0 -69 80 0 80 0 0
-225 0 -225 130 0 130 0 0 355 0 355 -105 0 c-94 0 -105 -2 -105 -18z"/>
<path d="M2770 762 c-122 -32 -203 -98 -235 -191 -52 -154 51 -300 246 -346
122 -28 296 -13 396 36 52 25 92 81 100 138 l6 41 -125 0 -124 0 -12 -34 c-14
-38 -55 -61 -113 -61 -52 0 -89 24 -110 70 l-18 40 249 3 250 2 0 48 c0 94
-69 191 -164 232 -100 43 -234 51 -346 22z m221 -141 c53 -54 44 -61 -86 -61
-118 0 -125 3 -105 40 16 30 60 49 113 50 41 0 53 -5 78 -29z"/>
<path d="M2136 756 c-22 -8 -52 -24 -67 -35 -36 -27 -39 -26 -39 4 l0 25 -125
0 -125 0 0 -260 0 -260 124 0 124 0 4 163 c4 183 10 201 71 219 47 14 106 -2
126 -34 11 -17 16 -67 19 -185 l4 -163 125 0 125 0 -4 178 c-3 176 -3 179 -33
237 -44 86 -98 118 -208 122 -55 2 -95 -2 -121 -11z"/>
<path d="M3642 751 c-28 -10 -60 -26 -71 -35 -18 -16 -19 -16 -25 9 -6 25 -7
25 -121 25 l-115 0 0 -260 0 -260 124 0 124 0 3 163 c3 135 7 168 22 190 31
48 103 48 134 0 15 -22 19 -55 21 -190 l4 -163 129 0 129 0 0 160 c0 122 4
168 15 189 24 48 77 55 122 17 l28 -24 3 -171 3 -171 131 0 130 0 -5 178 c-5
185 -13 228 -50 282 -39 58 -68 73 -155 78 -100 6 -177 -15 -226 -61 l-35 -33
-21 29 c-49 65 -185 87 -298 48z"/>
<path d="M5453 756 c-22 -8 -55 -23 -72 -35 l-31 -22 0 25 0 26 -130 0 -130 0
0 -260 0 -260 130 0 130 0 0 150 c0 179 9 212 65 230 49 16 99 5 125 -27 18
-23 20 -40 20 -189 l0 -164 131 0 131 0 -5 173 c-2 105 -9 187 -18 210 -20 59
-81 123 -136 141 -55 19 -152 20 -210 2z"/>
<path d="M6080 755 c-74 -21 -130 -56 -178 -110 -96 -109 -76 -271 46 -360
119 -87 305 -106 447 -45 55 24 121 83 146 131 34 69 34 69 -104 69 -122 0
-124 0 -135 -24 -18 -40 -56 -59 -104 -53 -56 8 -89 42 -95 100 -11 95 27 147
108 147 41 0 51 -4 73 -31 14 -17 26 -35 26 -40 0 -5 55 -9 125 -9 142 0 141
0 104 77 -27 55 -88 107 -158 134 -74 28 -224 35 -301 14z"/>
<path d="M900 746 c0 -2 61 -123 135 -269 147 -287 145 -277 64 -277 l-39 0 0
-101 0 -102 94 7 c51 3 115 13 143 21 99 29 101 32 285 393 l170 333 -137 -3
-137 -3 -75 -165 c-41 -91 -76 -166 -77 -168 -2 -1 -38 74 -81 168 l-79 170
-133 0 c-73 0 -133 -2 -133 -4z"/>
<path d="M6892 508 l3 -73 165 0 165 0 3 73 3 72 -171 0 -171 0 3 -72z"/>
</g>
</svg>
