<svg width="97" height="42" viewBox="0 0 97 42" fill="none" xmlns="http://www.w3.org/2000/svg">
<rect x="3" y="2" width="40" height="40" rx="20" fill="#C4C4C4"/>
<rect x="3" y="2" width="40" height="40" rx="20" fill="url(#paint0_linear_970_2782)"/>
<path d="M47.284 16.216C50.5693 16.216 52.212 18.1573 52.212 22.04V31H46.388V22.992C46.388 21.7227 45.8373 21.088 44.736 21.088C44.176 21.088 43.7187 21.256 43.364 21.592C43.0093 21.9093 42.832 22.3853 42.832 23.02V31H37.008V16.552H42.72V18.652H42.804C43.7 17.028 45.1933 16.216 47.284 16.216ZM69.8026 23.608C69.8026 24.1493 69.7652 24.6907 69.6906 25.232H59.1626C59.2372 26.7067 60.1612 27.444 61.9346 27.444C62.9239 27.444 63.6146 27.1827 64.0066 26.66H69.4386C69.0092 28.1533 68.1226 29.3107 66.7786 30.132C65.4346 30.9347 63.7826 31.336 61.8226 31.336C59.3026 31.336 57.3146 30.6733 55.8586 29.348C54.4212 28.004 53.7026 26.1653 53.7026 23.832C53.7026 21.536 54.4306 19.688 55.8866 18.288C57.3612 16.9067 59.3306 16.216 61.7946 16.216C64.2026 16.216 66.1439 16.8693 67.6186 18.176C69.0746 19.5013 69.8026 21.312 69.8026 23.608ZM61.7106 20.08C60.2919 20.08 59.4706 20.7893 59.2466 22.208H64.2026C64.0719 20.7893 63.2412 20.08 61.7106 20.08ZM90.3091 16.216C91.8024 16.216 92.9784 16.6733 93.8371 17.588C94.7144 18.484 95.1531 19.7813 95.1531 21.48V31H89.3291V22.992C89.3291 21.7227 88.8344 21.088 87.8451 21.088C87.3597 21.088 86.9491 21.256 86.6131 21.592C86.2957 21.9093 86.1371 22.3853 86.1371 23.02V31H80.3131V22.992C80.3131 21.7227 79.8184 21.088 78.8291 21.088C78.3437 21.088 77.9331 21.256 77.5971 21.592C77.2797 21.9093 77.1211 22.3853 77.1211 23.02V31H71.2971V16.552H77.0091V19.016H77.0651C77.9237 17.1493 79.3984 16.216 81.4891 16.216C83.5611 16.216 84.9517 17.028 85.6611 18.652H85.7731C86.9117 17.028 88.4237 16.216 90.3091 16.216Z" fill="#E414B2"/>
<path d="M52.212 31V31.5H52.712V31H52.212ZM46.388 31H45.888V31.5H46.388V31ZM43.364 21.592L43.6974 21.9646L43.7027 21.9599L43.7079 21.955L43.364 21.592ZM42.832 31V31.5H43.332V31H42.832ZM37.008 31H36.508V31.5H37.008V31ZM37.008 16.552V16.052H36.508V16.552H37.008ZM42.72 16.552H43.22V16.052H42.72V16.552ZM42.72 18.652H42.22V19.152H42.72V18.652ZM42.804 18.652V19.152H43.0992L43.2418 18.8935L42.804 18.652ZM47.284 16.716C48.8257 16.716 49.8982 17.1676 50.5983 17.995C51.312 18.8384 51.712 20.1572 51.712 22.04H52.712C52.712 20.0401 52.2907 18.4469 51.3617 17.349C50.4191 16.2351 49.0277 15.716 47.284 15.716V16.716ZM51.712 22.04V31H52.712V22.04H51.712ZM52.212 30.5H46.388V31.5H52.212V30.5ZM46.888 31V22.992H45.888V31H46.888ZM46.888 22.992C46.888 22.2963 46.7386 21.6812 46.3527 21.2363C45.9549 20.7779 45.3837 20.588 44.736 20.588V21.588C45.1896 21.588 45.4444 21.7154 45.5973 21.8917C45.762 22.0815 45.888 22.4184 45.888 22.992H46.888ZM44.736 20.588C44.0682 20.588 43.4813 20.7921 43.0201 21.229L43.7079 21.955C43.956 21.7199 44.2838 21.588 44.736 21.588V20.588ZM43.0306 21.2194C42.5377 21.6604 42.332 22.293 42.332 23.02H43.332C43.332 22.4777 43.481 22.1583 43.6974 21.9646L43.0306 21.2194ZM42.332 23.02V31H43.332V23.02H42.332ZM42.832 30.5H37.008V31.5H42.832V30.5ZM37.508 31V16.552H36.508V31H37.508ZM37.008 17.052H42.72V16.052H37.008V17.052ZM42.22 16.552V18.652H43.22V16.552H42.22ZM42.72 19.152H42.804V18.152H42.72V19.152ZM43.2418 18.8935C44.037 17.4522 45.3473 16.716 47.284 16.716V15.716C45.0394 15.716 43.363 16.6038 42.3662 18.4105L43.2418 18.8935ZM69.6906 25.232V25.732H70.1263L70.1859 25.3003L69.6906 25.232ZM59.1626 25.232V24.732H58.6366L58.6632 25.2573L59.1626 25.232ZM64.0066 26.66V26.16H63.7566L63.6066 26.36L64.0066 26.66ZM69.4386 26.66L69.9191 26.7982L70.1026 26.16H69.4386V26.66ZM66.7786 30.132L67.0349 30.5613L67.0393 30.5586L66.7786 30.132ZM55.8586 29.348L55.517 29.7132L55.522 29.7178L55.8586 29.348ZM55.8866 18.288L55.5447 17.9231L55.54 17.9276L55.8866 18.288ZM67.6186 18.176L67.9552 17.8062L67.9502 17.8018L67.6186 18.176ZM59.2466 22.208L58.7527 22.13L58.6614 22.708H59.2466V22.208ZM64.2026 22.208V22.708H64.7507L64.7005 22.1621L64.2026 22.208ZM69.3026 23.608C69.3026 24.1263 69.2668 24.6448 69.1953 25.1637L70.1859 25.3003C70.2636 24.7366 70.3026 24.1724 70.3026 23.608H69.3026ZM69.6906 24.732H59.1626V25.732H69.6906V24.732ZM58.6632 25.2573C58.7058 26.0993 58.9988 26.8023 59.5997 27.2818C60.185 27.7489 60.9888 27.944 61.9346 27.944V26.944C61.1069 26.944 60.5621 26.7705 60.2234 26.5002C59.9003 26.2423 59.694 25.8394 59.6619 25.2067L58.6632 25.2573ZM61.9346 27.944C62.9977 27.944 63.8793 27.663 64.4066 26.96L63.6066 26.36C63.3498 26.7023 62.8501 26.944 61.9346 26.944V27.944ZM64.0066 27.16H69.4386V26.16H64.0066V27.16ZM68.958 26.5218C68.5638 27.8931 67.7567 28.9483 66.5178 29.7054L67.0393 30.5586C68.4885 29.673 69.4547 28.4136 69.9191 26.7982L68.958 26.5218ZM66.5222 29.7027C65.273 30.4488 63.7148 30.836 61.8226 30.836V31.836C63.8503 31.836 65.5961 31.4206 67.0349 30.5613L66.5222 29.7027ZM61.8226 30.836C59.391 30.836 57.5355 30.1983 56.1951 28.9782L55.522 29.7178C57.0936 31.1483 59.2141 31.836 61.8226 31.836V30.836ZM56.2001 28.9828C54.8826 27.7509 54.2026 26.0548 54.2026 23.832H53.2026C53.2026 26.2758 53.9599 28.2571 55.5171 29.7132L56.2001 28.9828ZM54.2026 23.832C54.2026 21.6516 54.8889 19.9409 56.2331 18.6484L55.54 17.9276C53.9722 19.4351 53.2026 21.4204 53.2026 23.832H54.2026ZM56.2284 18.6529C57.591 17.3766 59.4281 16.716 61.7946 16.716V15.716C59.233 15.716 57.1315 16.4368 55.5447 17.9231L56.2284 18.6529ZM61.7946 16.716C64.1087 16.716 65.923 17.3416 67.287 18.5502L67.9502 17.8018C66.3648 16.3971 64.2964 15.716 61.7946 15.716V16.716ZM67.282 18.5458C68.6163 19.7603 69.3026 21.4271 69.3026 23.608H70.3026C70.3026 21.1969 69.5328 19.2423 67.9551 17.8062L67.282 18.5458ZM61.7106 19.58C60.9188 19.58 60.2301 19.779 59.7038 20.2336C59.1782 20.6875 58.8771 21.3421 58.7527 22.13L59.7404 22.286C59.84 21.6552 60.0616 21.2459 60.3574 20.9904C60.6524 20.7357 61.0837 20.58 61.7106 20.58V19.58ZM59.2466 22.708H64.2026V21.708H59.2466V22.708ZM64.7005 22.1621C64.6269 21.364 64.3481 20.6945 63.8063 20.2318C63.2699 19.7738 62.5476 19.58 61.7106 19.58V20.58C62.4042 20.58 62.8625 20.7409 63.1569 20.9922C63.4457 21.2389 63.6475 21.6334 63.7047 22.2539L64.7005 22.1621ZM93.8371 17.588L93.4724 17.9303L93.4798 17.9378L93.8371 17.588ZM95.1531 31V31.5H95.6531V31H95.1531ZM89.3291 31H88.8291V31.5H89.3291V31ZM86.6131 21.592L86.2595 21.2384L86.2595 21.2384L86.6131 21.592ZM86.1371 31V31.5H86.6371V31H86.1371ZM80.3131 31H79.8131V31.5H80.3131V31ZM77.5971 21.592L77.2435 21.2384L77.2435 21.2384L77.5971 21.592ZM77.1211 31V31.5H77.6211V31H77.1211ZM71.2971 31H70.7971V31.5H71.2971V31ZM71.2971 16.552V16.052H70.7971V16.552H71.2971ZM77.0091 16.552H77.5091V16.052H77.0091V16.552ZM77.0091 19.016H76.5091V19.516H77.0091V19.016ZM77.0651 19.016V19.516H77.3854L77.5193 19.225L77.0651 19.016ZM85.6611 18.652L85.2029 18.8521L85.3338 19.152H85.6611V18.652ZM85.7731 18.652V19.152H86.0331L86.1825 18.939L85.7731 18.652ZM90.3091 16.716C91.6928 16.716 92.7262 17.1353 93.4725 17.9302L94.2016 17.2458C93.2305 16.2114 91.912 15.716 90.3091 15.716V16.716ZM93.4798 17.9378C94.2371 18.7112 94.6531 19.8646 94.6531 21.48H95.6531C95.6531 19.698 95.1917 18.2568 94.1943 17.2382L93.4798 17.9378ZM94.6531 21.48V31H95.6531V21.48H94.6531ZM95.1531 30.5H89.3291V31.5H95.1531V30.5ZM89.8291 31V22.992H88.8291V31H89.8291ZM89.8291 22.992C89.8291 22.3061 89.6978 21.6997 89.3524 21.2566C88.9886 20.7899 88.4547 20.588 87.8451 20.588V21.588C88.2248 21.588 88.4328 21.7035 88.5637 21.8714C88.713 22.063 88.8291 22.4085 88.8291 22.992H89.8291ZM87.8451 20.588C87.2303 20.588 86.6915 20.8065 86.2595 21.2384L86.9666 21.9456C87.2066 21.7055 87.4892 21.588 87.8451 21.588V20.588ZM86.2595 21.2384C85.8153 21.6826 85.6371 22.3083 85.6371 23.02H86.6371C86.6371 22.4624 86.7761 22.136 86.9666 21.9456L86.2595 21.2384ZM85.6371 23.02V31H86.6371V23.02H85.6371ZM86.1371 30.5H80.3131V31.5H86.1371V30.5ZM80.8131 31V22.992H79.8131V31H80.8131ZM80.8131 22.992C80.8131 22.3061 80.6818 21.6997 80.3364 21.2566C79.9726 20.7899 79.4387 20.588 78.8291 20.588V21.588C79.2088 21.588 79.4168 21.7035 79.5477 21.8714C79.697 22.063 79.8131 22.4085 79.8131 22.992H80.8131ZM78.8291 20.588C78.2143 20.588 77.6755 20.8065 77.2435 21.2384L77.9506 21.9456C78.1906 21.7055 78.4732 21.588 78.8291 21.588V20.588ZM77.2435 21.2384C76.7993 21.6826 76.6211 22.3083 76.6211 23.02H77.6211C77.6211 22.4624 77.7601 22.136 77.9506 21.9456L77.2435 21.2384ZM76.6211 23.02V31H77.6211V23.02H76.6211ZM77.1211 30.5H71.2971V31.5H77.1211V30.5ZM71.7971 31V16.552H70.7971V31H71.7971ZM71.2971 17.052H77.0091V16.052H71.2971V17.052ZM76.5091 16.552V19.016H77.5091V16.552H76.5091ZM77.0091 19.516H77.0651V18.516H77.0091V19.516ZM77.5193 19.225C77.9156 18.3635 78.4403 17.7449 79.0825 17.3385C79.7252 16.9317 80.5195 16.716 81.4891 16.716V15.716C80.368 15.716 79.3796 15.967 78.5477 16.4935C77.7152 17.0204 77.0732 17.8018 76.6108 18.807L77.5193 19.225ZM81.4891 16.716C82.4613 16.716 83.2341 16.9065 83.8339 17.2568C84.4286 17.604 84.8861 18.127 85.2029 18.8521L86.1193 18.4519C85.7267 17.553 85.1342 16.858 84.3382 16.3932C83.5474 15.9315 82.5888 15.716 81.4891 15.716V16.716ZM85.6611 19.152H85.7731V18.152H85.6611V19.152ZM86.1825 18.939C87.2333 17.4403 88.5965 16.716 90.3091 16.716V15.716C88.2509 15.716 86.5902 16.6157 85.3637 18.365L86.1825 18.939Z" fill="white"/>
<path d="M6.832 11.064V18.428C7.784 16.9533 9.212 16.216 11.116 16.216C13.02 16.216 14.532 16.8973 15.652 18.26C16.7533 19.6413 17.304 21.48 17.304 23.776C17.304 26.0533 16.7533 27.8827 15.652 29.264C14.532 30.6453 13.02 31.336 11.116 31.336C9.08133 31.336 7.59733 30.5053 6.664 28.844V31H1.008V11.064H6.832ZM9.016 26.828C10.6587 26.828 11.48 25.8013 11.48 23.748C11.48 21.7133 10.6587 20.696 9.016 20.696C7.392 20.696 6.58 21.7133 6.58 23.748C6.58 25.8013 7.392 26.828 9.016 26.828ZM28.0066 19.184L28.7626 16.552H34.7266L29.0426 31.224C28.1652 33.5013 27.1666 34.9947 26.0466 35.704C24.9079 36.4133 23.1812 36.768 20.8666 36.768C20.1759 36.768 19.3266 36.7493 18.3186 36.712V32.232H20.9506C22.1266 32.232 22.7146 31.7747 22.7146 30.86C22.7146 30.5427 22.6306 30.1787 22.4626 29.768L17.1706 16.552H23.3866L24.1706 19.184C24.6932 21.032 25.3092 23.384 26.0186 26.24C26.7839 23.496 27.4466 21.144 28.0066 19.184Z" fill="white"/>
<path d="M6.832 11.064H7.332V10.564H6.832V11.064ZM6.832 18.428H6.332V20.1244L7.25207 18.6992L6.832 18.428ZM15.652 18.26L16.043 17.9483L16.0383 17.9425L15.652 18.26ZM15.652 29.264L16.0404 29.5789L16.0429 29.5757L15.652 29.264ZM6.664 28.844L7.09992 28.5991L6.164 26.9332V28.844H6.664ZM6.664 31V31.5H7.164V31H6.664ZM1.008 31H0.508V31.5H1.008V31ZM1.008 11.064V10.564H0.508V11.064H1.008ZM6.332 11.064V18.428H7.332V11.064H6.332ZM7.25207 18.6992C8.10305 17.381 9.36465 16.716 11.116 16.716V15.716C9.05935 15.716 7.46495 16.5257 6.41193 18.1568L7.25207 18.6992ZM11.116 16.716C12.884 16.716 14.249 17.3405 15.2657 18.5775L16.0383 17.9425C14.815 16.4542 13.156 15.716 11.116 15.716V16.716ZM15.2611 18.5717C16.273 19.841 16.804 21.559 16.804 23.776H17.804C17.804 21.401 17.2336 19.4417 16.0429 17.9483L15.2611 18.5717ZM16.804 23.776C16.804 25.9732 16.2736 27.6824 15.2611 28.9523L16.0429 29.5757C17.2331 28.083 17.804 26.1334 17.804 23.776H16.804ZM15.2636 28.9491C14.246 30.2042 12.8815 30.836 11.116 30.836V31.836C13.1585 31.836 14.818 31.0865 16.0404 29.5789L15.2636 28.9491ZM11.116 30.836C9.24701 30.836 7.9376 30.0902 7.09992 28.5991L6.22808 29.0889C7.25707 30.9205 8.91565 31.836 11.116 31.836V30.836ZM6.164 28.844V31H7.164V28.844H6.164ZM6.664 30.5H1.008V31.5H6.664V30.5ZM1.508 31V11.064H0.508V31H1.508ZM1.008 11.564H6.832V10.564H1.008V11.564ZM9.016 27.328C9.94769 27.328 10.7257 27.0313 11.2544 26.3703C11.7662 25.7307 11.98 24.8281 11.98 23.748H10.98C10.98 24.7212 10.7832 25.3587 10.4736 25.7457C10.181 26.1113 9.72698 26.328 9.016 26.328V27.328ZM11.98 23.748C11.98 22.6764 11.7658 21.7801 11.253 21.1449C10.7237 20.4893 9.94611 20.196 9.016 20.196V21.196C9.72855 21.196 10.183 21.4114 10.475 21.7731C10.7835 22.1552 10.98 22.7849 10.98 23.748H11.98ZM9.016 20.196C8.09325 20.196 7.32219 20.4906 6.79822 21.1471C6.29142 21.782 6.08 22.6774 6.08 23.748H7.08C7.08 22.7839 7.27458 22.1533 7.57978 21.7709C7.86781 21.41 8.31475 21.196 9.016 21.196V20.196ZM6.08 23.748C6.08 24.8271 6.29111 25.7287 6.79683 26.3682C7.32024 27.0299 8.09165 27.328 9.016 27.328V26.328C8.31635 26.328 7.86976 26.1127 7.58117 25.7478C7.27489 25.3606 7.08 24.7222 7.08 23.748H6.08ZM28.0066 19.184L27.526 19.046L27.5258 19.0466L28.0066 19.184ZM28.7626 16.552V16.052H28.386L28.282 16.414L28.7626 16.552ZM34.7266 16.552L35.1928 16.7326L35.4565 16.052H34.7266V16.552ZM29.0426 31.224L28.5763 31.0434L28.576 31.0443L29.0426 31.224ZM26.0466 35.704L26.3109 36.1284L26.3141 36.1264L26.0466 35.704ZM18.3186 36.712H17.8186V37.1938L18.3001 37.2117L18.3186 36.712ZM18.3186 32.232V31.732H17.8186V32.232H18.3186ZM22.4626 29.768L21.9984 29.9539L21.9998 29.9573L22.4626 29.768ZM17.1706 16.552V16.052H16.4318L16.7064 16.7379L17.1706 16.552ZM23.3866 16.552L23.8658 16.4093L23.7593 16.052H23.3866V16.552ZM24.1706 19.184L24.6517 19.0479L24.6498 19.0413L24.1706 19.184ZM26.0186 26.24L25.5333 26.3605L25.9906 28.2015L26.5002 26.3743L26.0186 26.24ZM28.4871 19.322L29.2431 16.69L28.282 16.414L27.526 19.046L28.4871 19.322ZM28.7626 17.052H34.7266V16.052H28.7626V17.052ZM34.2603 16.3714L28.5763 31.0434L29.5088 31.4046L35.1928 16.7326L34.2603 16.3714ZM28.576 31.0443C27.709 33.2947 26.7591 34.6609 25.779 35.2816L26.3141 36.1264C27.574 35.3285 28.6214 33.708 29.5091 31.4037L28.576 31.0443ZM25.7822 35.2796C24.7616 35.9154 23.1474 36.268 20.8666 36.268V37.268C23.2151 37.268 25.0542 36.9113 26.3109 36.1284L25.7822 35.2796ZM20.8666 36.268C20.1842 36.268 19.3414 36.2495 18.3371 36.2123L18.3001 37.2117C19.3117 37.2491 20.1676 37.268 20.8666 37.268V36.268ZM18.8186 36.712V32.232H17.8186V36.712H18.8186ZM18.3186 32.732H20.9506V31.732H18.3186V32.732ZM20.9506 32.732C21.5896 32.732 22.1608 32.6101 22.5805 32.2837C23.0241 31.9387 23.2146 31.4327 23.2146 30.86H22.2146C22.2146 31.202 22.111 31.382 21.9666 31.4943C21.7983 31.6252 21.4875 31.732 20.9506 31.732V32.732ZM23.2146 30.86C23.2146 30.4574 23.1088 30.0272 22.9253 29.5787L21.9998 29.9573C22.1523 30.3301 22.2146 30.6279 22.2146 30.86H23.2146ZM22.9267 29.5821L17.6347 16.3661L16.7064 16.7379L21.9984 29.9539L22.9267 29.5821ZM17.1706 17.052H23.3866V16.052H17.1706V17.052ZM22.9074 16.6947L23.6914 19.3267L24.6498 19.0413L23.8658 16.4093L22.9074 16.6947ZM23.6894 19.3201C24.2101 21.161 24.8247 23.5073 25.5333 26.3605L26.5038 26.1195C25.7938 23.2607 25.1764 20.903 24.6517 19.0479L23.6894 19.3201ZM26.5002 26.3743C27.2653 23.631 27.9277 21.28 28.4873 19.3214L27.5258 19.0466C26.9654 21.008 26.3025 23.361 25.5369 26.1057L26.5002 26.3743Z" fill="#2882D6"/>
<defs>
<linearGradient id="paint0_linear_970_2782" x1="3" y1="22.5714" x2="43" y2="22.5714" gradientUnits="userSpaceOnUse">
<stop stop-color="#2882D6"/>
<stop offset="1" stop-color="#E414B2"/>
</linearGradient>
</defs>
</svg>
